<?xml version="1.0" standalone="no"?>
<!DOCTYPE svg PUBLIC "-//W3C//DTD SVG 20010904//EN"
 "http://www.w3.org/TR/2001/REC-SVG-20010904/DTD/svg10.dtd">
<svg version="1.0" xmlns="http://www.w3.org/2000/svg"
 width="351.000000pt" height="351.000000pt" viewBox="0 0 351.000000 351.000000"
 preserveAspectRatio="xMidYMid meet">
<metadata>
Created by potrace 1.14, written by Peter Selinger 2001-2017
</metadata>
<g transform="translate(0.000000,351.000000) scale(0.100000,-0.100000)"
fill="#000000" stroke="none">
<path d="M3107 3437 c-56 -14 -103 -65 -116 -127 -14 -67 -25 -85 -80 -142
-56 -57 -148 -114 -216 -133 -27 -7 -108 -16 -180 -19 -250 -11 -435 -85 -604
-242 -108 -100 -190 -235 -228 -374 -25 -92 -24 -312 1 -395 66 -216 253 -397
499 -480 48 -17 87 -32 87 -35 0 -3 -30 -21 -67 -40 -82 -42 -162 -118 -164
-155 -4 -82 0 -102 27 -135 37 -43 85 -60 189 -66 192 -10 323 -50 393 -121
50 -51 66 -108 67 -238 0 -103 -3 -129 -24 -182 -34 -90 -89 -149 -157 -169
-64 -18 -104 -21 -158 -10 -101 20 -200 104 -230 194 -9 26 -18 80 -21 120 -7
101 -28 139 -103 176 -62 32 -165 8 -204 -48 -63 -88 -32 -319 61 -463 93
-143 242 -247 414 -288 104 -26 279 -30 398 -11 438 73 709 351 695 716 -5
147 -53 256 -154 354 -104 101 -262 178 -462 226 -30 8 -59 17 -63 20 -5 4 22
29 60 55 246 174 354 287 432 456 57 125 74 202 77 364 2 121 -1 153 -21 232
-32 125 -75 211 -141 282 l-54 59 42 49 c123 142 206 286 222 383 19 120 -95
218 -217 187z m-563 -773 c23 -88 130 -140 223 -108 57 20 69 17 98 -20 49
-64 68 -131 71 -246 3 -85 -1 -120 -20 -185 -40 -142 -115 -249 -209 -296 -45
-23 -142 -31 -197 -16 -77 20 -135 91 -170 206 -14 47 -17 87 -15 193 5 201
56 355 151 455 47 50 59 53 68 17z"/>
<path d="M202 3103 c-89 -31 -139 -116 -129 -219 7 -73 119 -321 235 -521 4
-7 49 -78 100 -159 50 -80 92 -150 92 -155 0 -9 -69 -83 -285 -306 -129 -133
-163 -179 -160 -218 1 -11 2 -32 3 -47 2 -32 43 -83 85 -105 39 -20 124 -21
159 -2 30 16 140 121 296 282 56 59 104 107 105 107 2 0 21 -26 42 -57 95
-140 271 -323 355 -367 63 -34 145 -39 197 -13 41 22 88 77 103 122 12 36 10
148 -4 209 -17 73 -86 236 -172 404 l-94 182 87 113 c48 61 90 114 93 117 39
32 207 288 231 350 24 63 24 84 -1 134 -26 54 -80 88 -143 92 -87 4 -128 -23
-181 -119 -44 -80 -144 -224 -232 -334 l-42 -53 -103 137 c-227 300 -405 445
-547 442 -26 0 -66 -7 -90 -16z"/>
</g>
</svg>
